<?xml version="1.0" encoding="UTF-8"?> <svg xmlns="http://www.w3.org/2000/svg" xmlns:xlink="http://www.w3.org/1999/xlink" width="40px" height="50px" viewBox="0 0 40 50"><!-- Generator: Sketch 61.1 (89650) - https://sketch.com --><title>logo/logo</title><desc>Created with Sketch.</desc><g id="Element-Sheet" stroke="none" stroke-width="1" fill="none" fill-rule="evenodd"><g transform="translate(-237.000000, -1444.000000)" id="logo/logo"><g transform="translate(238.000000, 1445.000000)"><g id="Group" transform="translate(0.268571, 0.000000)"><path d="M0.0182602012,1.088491e-14 L37.3901937,1.088491e-14 L37.3901937,25.224638 C37.406588,32.544391 38.0720201,37.6083448 30.5725151,41.8821149 C22.7972348,46.012891 18.7346735,47.7796561 18.7346735,47.7796561 C18.7346735,47.7796561 11.548709,44.7357543 6.84120846,41.87171 C2.1337079,39.007071 -0.234094617,35.7280167 0.0182602012,24.8518425 L0.0182602012,1.088491e-14" id="Fill-1" fill="#FFFFFE"></path><path d="M0.0182602012,1.088491e-14 L37.3901937,1.088491e-14 L37.3901937,25.224638 C37.406588,32.544391 38.0720201,37.6083448 30.5725151,41.8821149 C22.7972348,46.012891 18.7346735,47.7796561 18.7346735,47.7796561 C18.7346735,47.7796561 11.548709,44.7357543 6.84120846,41.87171 C2.1337079,39.007071 -0.234094617,35.7280167 0.0182602012,24.8518425 L0.0182602012,1.088491e-14 Z" id="Stroke-2" stroke="#00346B" stroke-width="0.78"></path><path d="M1.82807167,1.64131086 L1.82807167,24.8438158 C1.82807167,35.4777027 4.09136065,38.2757498 10.0966442,41.2708968 C16.1016349,44.2657466 18.718572,45.5711253 18.718572,45.5711253 C18.718572,45.5711253 21.5825942,44.0903484 28.0085667,40.8945339 C34.1704741,37.5194566 35.6986553,36.1168656 35.5774547,24.836681 L35.5774547,1.64131086 L1.82807167,1.64131086" id="Fill-4" fill="#00346B"></path><polygon id="Fill-5" fill="#FFFFFE" points="2.74088179 21.2868 18.6178642 21.2868 18.6178642 2.59500136 2.74088179 2.59500136"></polygon><path d="M18.6178642,21.2868 L34.6816244,21.2868 C34.6816244,21.2868 34.6807461,20.0283923 34.6807461,25.8245593 C34.979649,37.2774665 31.1738338,38.1693217 25.0230511,41.0678511 C20.5494618,43.2698416 18.6052758,44.226505 18.6052758,44.226505 L18.6178642,21.2868" id="Fill-6" fill="#FFFFFE"></path><polyline id="Fill-7" fill="#00346B" points="29.4524344 31.2800376 22.6918429 31.2800376 22.2008928 30.8344072 29.8994713 30.8344072 29.4524344 31.2800376"></polyline><path d="M27.6557969,26.8959747 C27.6557969,27.7961538 26.9367906,28.526286 26.0503284,28.526286 C25.1638662,28.526286 24.4445672,27.7961538 24.4445672,26.8959747 C24.4445672,25.9957955 25.1638662,25.2656633 26.0503284,25.2656633 C26.9367906,25.2656633 27.6557969,25.9957955 27.6557969,26.8959747" id="Fill-8" fill="#00346B"></path><path d="M27.0776057,26.8959747 C27.0776057,27.4721131 26.6168094,27.9397425 26.0497429,27.9397425 C25.4820909,27.9397425 25.0230511,27.4721131 25.0230511,26.8959747 C25.0230511,26.3198362 25.4820909,25.8528014 26.0497429,25.8528014 C26.6168094,25.8528014 27.0776057,26.3198362 27.0776057,26.8959747" id="Fill-9" fill="#FFFFFE"></path><polygon id="Fill-10" fill="#21355A" points="25.8688203 31.8481493 26.2321293 31.8481493 26.2321293 30.2659982 25.8688203 30.2659982"></polygon><path d="M25.6958021,27.0707783 C25.487946,26.9925923 25.2642812,27.0817778 25.1954838,27.2693647 L24.9103404,28.0536027 C24.9079984,28.0592511 24.9077056,28.0648995 24.9065346,28.070548 L22.3379021,34.4169896 L22.3466848,36.8698887 L25.6261264,28.4064801 C25.6407642,28.3847783 25.6530599,28.36159 25.6627208,28.3360235 L25.805878,27.9427154 L25.8064635,27.941229 L25.9478642,27.5517855 C26.0166616,27.3639014 25.9033654,27.1489643 25.6958021,27.0707783" id="Fill-11" fill="#00346B"></path><path d="M26.4048547,27.0707783 C26.6127108,26.9925923 26.8363756,27.0817778 26.905173,27.2693647 L27.1903164,28.0536027 C27.1923657,28.0592511 27.1926585,28.0648995 27.194415,28.070548 L29.7627547,34.4169896 L29.7536793,36.8698887 L26.4745304,28.4064801 C26.4598927,28.3847783 26.4473042,28.36159 26.4379361,28.3360235 L26.2950716,27.9427154 L26.2944861,27.941229 L26.1524999,27.5517855 C26.084288,27.3639014 26.1972914,27.1489643 26.4048547,27.0707783" id="Fill-12" fill="#00346B"></path><path d="M26.2892165,25.5192475 C26.2892165,25.627162 26.1823609,25.7142665 26.0503284,25.7142665 C25.9182959,25.7142665 25.8111476,25.627162 25.8111476,25.5192475 L25.8111476,24.2427054 C25.8111476,24.1350882 25.9182959,24.0476864 26.0503284,24.0476864 C26.1823609,24.0476864 26.2892165,24.1350882 26.2892165,24.2427054 L26.2892165,25.5192475" id="Fill-13" fill="#21355A"></path><path d="M14.060547,8.76842308 C14.2774785,8.89120181 14.6261497,8.87931041 14.7690141,9.07670769 C14.65806,8.70985792 14.4220994,8.46994887 14.060547,8.35727783 C14.060547,8.49432624 14.060547,8.63137466 14.060547,8.76842308 Z M11.0237993,7.53498733 C10.774372,7.74487059 11.3616386,7.95534842 11.0237993,8.25441719 C10.7573922,8.36114253 10.4025732,8.37749321 10.0117452,8.35727783 C9.56031699,8.89268824 9.10039887,9.41918009 8.49322498,9.79643484 C8.02423145,9.80000226 7.45043163,9.69654706 7.58217139,10.3104407 C7.93757597,10.5955371 8.12874499,10.0280199 8.59451821,10.1047195 C9.02223328,10.4127068 9.65985369,9.89661991 9.70786551,10.6187253 C9.23565168,10.6187253 8.7631451,10.6187253 8.29093127,10.6187253 C8.11674203,11.5944149 9.22979658,11.1336231 9.70786551,11.2349973 C10.6098437,11.4273407 11.3613458,11.9823719 11.7325592,12.571591 C12.1075783,12.7044774 12.5467108,13.1622964 12.5467108,13.1622964 C12.5467108,13.1622964 12.6819637,14.187038 12.4407335,14.6273172 C10.9523671,14.9662222 10.9494395,16.812957 9.5055718,17.1970493 C9.22569801,16.3135181 9.72016122,15.371719 9.60657228,14.3190326 C8.87819781,14.0309633 8.55587455,13.3302624 8.29093127,12.571591 C8.27160943,12.1408249 8.78773652,12.2540905 8.69581144,11.7493005 C7.84594365,11.4749063 6.57011732,10.8538778 6.77241103,9.17956833 C5.6488173,10.0348575 5.3917784,11.7127344 5.55806325,13.0855968 C5.81832245,15.2352652 7.78241581,17.3094231 10.0117452,17.6078973 C12.4621046,17.9366946 14.1375416,16.6729357 15.2751875,15.1413231 C14.906609,14.0333416 15.7318853,12.7710692 15.1738943,11.7493005 C14.8422029,11.5822262 14.7868722,11.772786 14.3641339,11.7493005 C14.1369561,11.1719729 13.5924317,10.5238914 13.4530804,9.79643484 C13.3857467,9.4429629 13.635174,9.10970633 13.5543736,8.76842308 C13.4311237,8.24549864 12.9489562,8.38551991 12.7446132,7.84327195 C12.6193141,7.51090724 13.0722061,7.76478869 12.9471997,7.4321267 C12.2003817,7.19251493 11.5776918,7.00611719 11.0237993,7.53498733 Z M9.30298533,7.22670271 C9.25526627,7.5495543 9.42916274,7.64676652 9.60657228,7.7407086 C9.7541208,7.47939502 10.1352878,7.45501765 10.4163326,7.32956335 C10.4154544,6.75401946 9.61564768,7.19192036 9.30298533,7.22670271 Z M9.70786551,6.71269683 C14.3295889,5.90348688 18.1239865,10.7736109 15.7813609,15.1413231 C14.8495217,16.8783597 12.658836,18.1120928 10.8215056,18.1222884 C7.38719655,18.1412267 4.69912005,15.0717584 5.15289032,11.4410158 C5.27116334,10.497433 5.77148165,9.48993394 5.96294343,9.17956833 C6.63071761,8.09418054 8.08746653,6.99630679 9.70786551,6.71269683 L9.70786551,6.71269683 Z" id="Fill-14" fill="#00346B"></path><path d="M31.4367278,10.6603452 C31.4367278,11.8694036 31.4367278,14.248576 31.4367278,14.248576 L30.1096694,14.248576 C30.1096694,14.248576 30.8096466,11.6818167 31.4367278,10.6603452 Z M23.9419068,14.248576 L22.6145556,14.248576 C22.6145556,14.248576 22.6145556,11.8694036 22.6145556,10.6603452 C23.2416369,11.6818167 23.9419068,14.248576 23.9419068,14.248576 Z M22.3083339,14.248576 C21.9002334,14.248576 21.4915474,14.248576 21.0837397,14.248576 C21.2898392,13.0062217 22.3083339,10.6603452 22.3083339,10.6603452 C22.3083339,10.6603452 22.3083339,13.1771606 22.3083339,14.248576 Z M31.7429496,10.6603452 C31.7429496,10.6603452 32.761737,13.0062217 32.9678365,14.248576 C32.5594433,14.248576 32.1513428,14.248576 31.7429496,14.248576 C31.7429496,13.1771606 31.7429496,10.6603452 31.7429496,10.6603452 Z M29.2363812,14.248576 C30.0783446,15.8360783 32.9212885,15.581305 33.9069946,14.248576 L33.3103599,14.248576 C32.9198247,12.675938 32.26581,11.2296462 31.7429496,9.79108371 C31.9467071,9.32910271 31.9388027,8.42089683 31.4367278,8.44378778 C30.934653,8.46667873 30.963343,8.79220588 31.0286274,9.27291584 C29.6374556,9.68168281 29.0698036,8.06445204 27.6601882,8.75474796 C27.9330359,7.76181584 27.8027599,6.80990905 27.1499162,6.26706652 C27.3864623,6.0185362 27.2962937,5.08833122 27.0257881,5.08833122 C26.7555752,5.08833122 26.6648212,6.0185362 26.90166,6.26706652 C26.2488163,6.80990905 26.1179548,7.76181584 26.391388,8.75474796 C24.9814799,8.06445204 24.4144134,9.68168281 23.0229489,9.27291584 C23.0882332,8.79220588 23.1163377,8.46667873 22.6145556,8.44378778 C22.1127735,8.42089683 22.1045764,9.32910271 22.3083339,9.79108371 C21.7854734,11.2296462 21.1314587,12.675938 20.7412163,14.248576 L20.1445816,14.248576 C21.129995,15.581305 23.9732316,15.8360783 24.815195,14.248576 L24.2937984,14.248576 C23.8575934,12.7214226 23.1403436,11.2269706 22.8191914,9.58387602 C24.1749398,10.2135258 25.9431801,8.26274118 26.90166,9.89513348 C26.8472076,12.3783557 25.5069751,14.5940213 26.7886566,17.059109 L24.6439334,17.0564335 L24.6439334,17.5582507 L23.6251459,17.5582507 L23.6236821,18.0594733 L22.7105793,18.0594733 L22.7091155,18.6252068 C22.7091155,18.6252068 26.3085383,18.6252068 26.992414,18.6252068 C27.0038315,18.6252068 27.0143707,18.6252068 27.0257881,18.6252068 L27.0257881,18.5523719 L27.0257881,18.6252068 C27.0372056,18.6252068 27.0477447,18.6252068 27.0594549,18.6252068 C27.7427451,18.6252068 31.342168,18.6252068 31.342168,18.6252068 L31.340997,18.0594733 L30.4278941,18.0594733 L30.4264303,17.5582507 L29.4073501,17.5582507 L29.4073501,17.0564335 L27.2626269,17.059109 C28.5443083,14.5940213 27.2040759,12.3783557 27.1499162,9.89513348 C28.1081034,8.26274118 29.8760509,10.2135258 31.2326776,9.58387602 C30.9109398,11.2269706 30.1936901,12.7214226 29.7577779,14.248576 L29.2363812,14.248576 L29.2363812,14.248576 Z" id="Fill-15" fill="#FFFFFE"></path><path d="M16.2465487,34.6681955 C14.7745765,34.4404751 13.0145333,33.8833629 10.9790078,34.383991 C12.9498345,33.5061081 14.9013394,34.1497303 15.9016833,34.2466452 L15.9075384,26.7054149 L16.2412791,26.8460308 C16.2412791,26.8460308 16.3466709,31.9881706 16.2465487,34.6681955 Z M5.34727964,34.6681955 C5.24774294,31.9881706 5.34932893,26.8457335 5.34932893,26.8457335 L5.69536535,26.7054149 L5.6924378,34.2466452 C6.69307442,34.1497303 8.64428656,33.5061081 10.6151133,34.383991 C8.5795877,33.8833629 6.81954459,34.4404751 5.34727964,34.6681955 Z M10.5100142,33.9900882 C8.97539248,33.3093054 7.05667614,33.6922086 5.97787393,33.8747416 C6.99402657,33.2299303 9.54099516,32.8910253 10.5100142,33.9900882 Z M15.6162471,33.8747416 C14.5374449,33.6922086 12.6187286,33.3093054 11.0841068,33.9900882 C12.0534186,32.8910253 14.6000945,33.2299303 15.6162471,33.8747416 Z M16.5454515,26.5466647 C14.9177337,25.9179068 12.7858917,25.3887394 10.7972069,26.5963113 C9.49503262,25.4291701 7.05257757,25.8376398 5.05833045,26.5436919 C5.05393912,28.950809 5.0495478,32.648738 5.04982668,35.0564498 C6.64916117,34.8759977 8.99969114,34.1705403 10.7928156,34.831405 L10.8013055,34.831405 C12.5944299,34.1705403 14.9449599,34.8759977 16.5442805,35.0564498 C16.5445733,32.648738 16.5501356,28.9540792 16.5454515,26.5466647 L16.5454515,26.5466647 Z" id="Fill-16" fill="#FFFFFE"></path><path d="M10.582032,26.9277842 C10.6473163,28.9621059 10.5044519,31.3947896 10.5747131,33.5596195 C10.0577077,33.2679828 9.81355007,33.0628561 9.17417313,32.9766434 C8.17207273,32.8419733 6.94601475,33.1392584 6.14123123,33.3910588 C6.14123123,31.22831 6.14123123,28.7608439 6.14123123,26.5977977 C7.32747453,26.1144122 9.80242538,26.0540633 10.582032,26.9277842" id="Fill-17" fill="#00346B"></path><path d="M11.0120891,26.9277842 C10.9468047,28.9621059 11.0896692,31.3947896 11.019408,33.5596195 C11.5364133,33.2679828 11.780571,33.0628561 12.4202407,32.9766434 C13.4220483,32.8419733 14.6481063,33.1392584 15.4528898,33.3910588 C15.4528898,31.22831 15.4528898,28.7608439 15.4528898,26.5977977 C14.2666465,26.1144122 11.7916957,26.0540633 11.0120891,26.9277842" id="Fill-18" fill="#00346B"></path></g></g></g></g></svg> 